name rise32.9588peak41.5061fall63.4684.mot
datacolumns 19
datarows 26
range 22.19324600000000 22.23491300000000
endheader
time	ground_force1_vx	ground_force1_vy	ground_force1_vz	ground_force1_px	ground_force1_py	ground_force1_pz	ground_force2_vx	ground_force2_vy	ground_force2_vz	ground_force2_px	ground_force2_py	ground_force2_pz	ground_torque1_x	ground_torque1_y	ground_torque1_z	ground_torque2_x	ground_torque2_y	ground_torque2_z	
22.19324600000000	-37.00995100000000	819.80958299999998	43.55569600000000	0.09353800000000	0.00000000000000	0.08914000000000	0.00000000000000	0.00000000000000	0.00000000000000	0.00000000000000	0.00000000000000	0.00000000000000	0.00000000000000	13.51624600000000	0.00000000000000	0.00000000000000	0.00000000000000	0.00000000000000	
22.19491500000000	-37.60569500000000	818.34453399999995	43.50673100000000	0.09260500000000	0.00000000000000	0.08910100000000	0.00000000000000	0.00000000000000	0.00000000000000	0.00000000000000	0.00000000000000	0.00000000000000	0.00000000000000	13.48928300000000	0.00000000000000	0.00000000000000	0.00000000000000	0.00000000000000	
22.19658700000000	-38.21942500000000	816.75858600000004	43.44109200000000	0.09167000000000	0.00000000000000	0.08906000000000	0.00000000000000	0.00000000000000	0.00000000000000	0.00000000000000	0.00000000000000	0.00000000000000	0.00000000000000	13.46457200000000	0.00000000000000	0.00000000000000	0.00000000000000	0.00000000000000	
22.19825100000000	-38.85141100000000	815.04974100000004	43.35825700000000	0.09073400000000	0.00000000000000	0.08901500000000	0.00000000000000	0.00000000000000	0.00000000000000	0.00000000000000	0.00000000000000	0.00000000000000	0.00000000000000	13.44223200000000	0.00000000000000	0.00000000000000	0.00000000000000	0.00000000000000	
22.19991500000000	-39.50184700000000	813.21598100000006	43.25772500000000	0.08979700000000	0.00000000000000	0.08896800000000	0.00000000000000	0.00000000000000	0.00000000000000	0.00000000000000	0.00000000000000	0.00000000000000	0.00000000000000	13.42237300000000	0.00000000000000	0.00000000000000	0.00000000000000	0.00000000000000	
22.20158200000000	-40.17084500000000	811.25526900000000	43.13902500000000	0.08885800000000	0.00000000000000	0.08891800000000	0.00000000000000	0.00000000000000	0.00000000000000	0.00000000000000	0.00000000000000	0.00000000000000	0.00000000000000	13.40508900000000	0.00000000000000	0.00000000000000	0.00000000000000	0.00000000000000	
22.20324700000000	-40.85843200000000	809.16554900000006	43.00171000000000	0.08791900000000	0.00000000000000	0.08886500000000	0.00000000000000	0.00000000000000	0.00000000000000	0.00000000000000	0.00000000000000	0.00000000000000	0.00000000000000	13.39046400000000	0.00000000000000	0.00000000000000	0.00000000000000	0.00000000000000	
22.20491900000000	-41.56455000000000	806.94474200000002	42.84536400000000	0.08698000000000	0.00000000000000	0.08880800000000	-1.23868500000000	3.19958700000000	1.11681900000000	0.00000000000000	0.00000000000000	0.00000000000000	0.00000000000000	13.37856700000000	0.00000000000000	0.00000000000000	0.32041100000000	0.00000000000000	
22.20658600000000	-42.28904900000000	804.59075099999995	42.66960400000000	0.08604000000000	0.00000000000000	0.08874900000000	-1.98217100000000	6.61545900000000	1.91762200000000	0.00000000000000	0.00000000000000	0.00000000000000	0.00000000000000	13.36945100000000	0.00000000000000	0.00000000000000	0.56063400000000	0.00000000000000	
22.20824500000000	-43.03168500000000	802.10145899999998	42.47407600000000	0.08510000000000	0.00000000000000	0.08868700000000	-2.82236600000000	10.80488200000000	2.85075500000000	0.00000000000000	0.00000000000000	0.00000000000000	0.00000000000000	13.36315600000000	0.00000000000000	0.00000000000000	0.84248000000000	0.00000000000000	
22.20991800000000	-43.79211900000000	799.47473200000002	42.25846400000000	0.08416100000000	0.00000000000000	0.08862100000000	-3.73333800000000	15.74086000000000	3.89599600000000	0.00000000000000	0.00000000000000	0.00000000000000	0.00000000000000	13.35970400000000	0.00000000000000	0.00000000000000	1.16042300000000	0.00000000000000	
22.21158100000000	-44.56991400000000	796.70842300000004	42.02248700000000	0.08322300000000	0.00000000000000	0.08855300000000	-4.68267800000000	21.36428700000000	5.02586400000000	0.00000000000000	0.00000000000000	0.00000000000000	0.00000000000000	13.35910400000000	0.00000000000000	0.00000000000000	1.50674600000000	0.00000000000000	
22.21325200000000	-45.36453300000000	793.80037100000004	41.76590100000000	0.08228600000000	0.00000000000000	0.08848100000000	-5.63358500000000	27.58865800000000	6.20742700000000	0.28599700000000	0.00000000000000	-0.06352400000000	0.00000000000000	13.36134500000000	0.00000000000000	0.00000000000000	3.28948900000000	0.00000000000000	
22.21491800000000	-46.17533800000000	790.74840900000004	41.48850100000000	0.08135100000000	0.00000000000000	0.08840600000000	-6.54749400000000	34.30764500000000	7.40475000000000	0.29310500000000	0.00000000000000	-0.06429800000000	0.00000000000000	13.36640100000000	0.00000000000000	0.00000000000000	3.99535500000000	0.00000000000000	
22.21658600000000	-47.00158600000000	787.55036700000005	41.19012300000000	0.08041800000000	0.00000000000000	0.08832800000000	-7.38692300000000	41.40454700000000	8.58163700000000	0.29925800000000	0.00000000000000	-0.06498100000000	0.00000000000000	13.37422800000000	0.00000000000000	0.00000000000000	4.70611300000000	0.00000000000000	
22.21824700000000	-47.84243200000000	784.20407599999999	40.87064400000000	0.07948700000000	0.00000000000000	0.08824700000000	-8.11814700000000	48.76221100000000	9.70431300000000	0.30464600000000	0.00000000000000	-0.06559000000000	0.00000000000000	13.38476300000000	0.00000000000000	0.00000000000000	5.40209800000000	0.00000000000000	
22.21991300000000	-48.69692400000000	780.70737399999996	40.52998200000000	0.07855900000000	0.00000000000000	0.08816200000000	-8.71336300000000	56.27213100000000	10.74369300000000	0.30940900000000	0.00000000000000	-0.06614100000000	0.00000000000000	13.39792700000000	0.00000000000000	0.00000000000000	6.06584400000000	0.00000000000000	
22.22158300000000	-49.56401000000000	777.05811600000004	40.16810100000000	0.07763500000000	0.00000000000000	0.08807400000000	-9.15213100000000	63.84171000000000	11.67699800000000	0.31365500000000	0.00000000000000	-0.06664200000000	0.00000000000000	13.41362100000000	0.00000000000000	0.00000000000000	6.68311400000000	0.00000000000000	
22.22324900000000	-50.44252700000000	773.25417500000003	39.78500800000000	0.07671400000000	0.00000000000000	0.08798400000000	-9.42202800000000	71.39916900000000	12.48864100000000	0.31747000000000	0.00000000000000	-0.06710200000000	0.00000000000000	13.43172800000000	0.00000000000000	0.00000000000000	7.24351700000000	0.00000000000000	
22.22491900000000	-51.33121400000000	769.29345400000000	39.38075400000000	0.07579800000000	0.00000000000000	0.08789000000000	-9.51855000000000	78.89596299999999	13.17038200000000	0.32091900000000	0.00000000000000	-0.06752800000000	0.00000000000000	13.45211300000000	0.00000000000000	0.00000000000000	7.74072700000000	0.00000000000000	
22.22658200000000	-52.22870400000000	765.17389200000002	38.95543800000000	0.07488600000000	0.00000000000000	0.08779200000000	-9.44438500000000	86.30688800000000	13.72086200000000	0.32405600000000	0.00000000000000	-0.06792500000000	0.00000000000000	13.47462200000000	0.00000000000000	0.00000000000000	8.17233000000000	0.00000000000000	
22.22825000000000	-53.13353000000000	760.89347599999996	38.50920400000000	0.07398000000000	0.00000000000000	0.08769200000000	-9.20822300000000	93.62824000000001	14.14465000000000	0.32692400000000	0.00000000000000	-0.06829700000000	0.00000000000000	13.49908300000000	0.00000000000000	0.00000000000000	8.53937000000000	0.00000000000000	
22.22991900000000	-54.04412400000000	756.45024599999999	38.04224200000000	0.07308000000000	0.00000000000000	0.08758900000000	-8.82328400000000	100.87452500000001	14.45096800000000	0.32955900000000	0.00000000000000	-0.06864700000000	0.00000000000000	13.52530500000000	0.00000000000000	0.00000000000000	8.84570300000000	0.00000000000000	
22.23158400000000	-54.95882300000000	751.84231000000000	37.55479000000000	0.07218600000000	0.00000000000000	0.08748200000000	-8.30572000000000	108.07424100000000	14.65225600000000	0.33199000000000	0.00000000000000	-0.06897800000000	0.00000000000000	13.55308100000000	0.00000000000000	0.00000000000000	9.09721400000000	0.00000000000000	
22.23325000000000	-55.87586800000000	747.06785500000001	37.04713400000000	0.07129900000000	0.00000000000000	0.08737300000000	-7.67306900000000	115.26524999999999	14.76272500000000	0.33424000000000	0.00000000000000	-0.06929300000000	0.00000000000000	13.58218300000000	0.00000000000000	0.00000000000000	9.30102400000000	0.00000000000000	
22.23491300000000	-56.79341200000000	742.12515399999995	36.51960600000000	0.07042000000000	0.00000000000000	0.08726000000000	-6.94285200000000	122.49018000000000	14.79701500000000	0.33633000000000	0.00000000000000	-0.06959300000000	0.00000000000000	13.61237000000000	0.00000000000000	0.00000000000000	9.46471600000000	0.00000000000000	
